<svg id="Layer_1" data-name="Layer 1" xmlns="http://www.w3.org/2000/svg" viewBox="0 0 20 20"><defs><style>.cls-1{fill:#e7e7e7;}.cls-2{fill:#939393;}</style></defs><title>Artboard 1</title><circle class="cls-1" cx="10" cy="10" r="10"/><path class="cls-2" d="M13.4,11.3,11.7,9.7,13.4,8c.1-.1.1-.1.1-.2s0-.2-.1-.2L12.1,6.3a.45.45,0,0,0-.5,0L10,7.9,8.3,6.3a.3.3,0,0,0-.4,0L6.6,7.6a.3.3,0,0,0,0,.4L8.3,9.7,6.7,11.3c-.1.1-.1.1-.1.2s0,.2.1.2L8,13a.45.45,0,0,0,.5,0l1.6-1.6,1.7,1.7c.1.1.1.1.2.1s.2,0,.2-.1l1.3-1.3c.1-.1.1-.1.1-.2S13.5,11.4,13.4,11.3Z"/></svg>